<?xml version="1.0"?>
<svg xmlns="http://www.w3.org/2000/svg" id="Capa_1" enable-background="new 0 0 512 512" height="512px" viewBox="0 0 512 512" width="512px"><g><g><path d="m452 392h-6.258c3.445-14.574 5.258-29.654 5.258-45 0-107.523-87.477-195-195-195s-195 87.477-195 195c0 15.346 1.813 30.426 5.258 45h-6.258c-33.084 0-60 26.916-60 60s26.916 60 60 60h392c33.084 0 60-26.916 60-60s-26.916-60-60-60zm-196-210c90.981 0 165 74.019 165 165 0 53.913-26.133 104.043-70.121 135h-189.758c-43.988-30.957-70.121-81.087-70.121-135 0-90.981 74.019-165 165-165zm-226 270c0-16.542 13.458-30 30-30h15.968c9.227 22.165 22.512 42.524 39.295 60h-55.263c-16.542 0-30-13.458-30-30zm422 30h-55.263c16.783-17.476 30.068-37.835 39.295-60h15.968c16.542 0 30 13.458 30 30s-13.458 30-30 30z" data-original="#000000" class="active-path" data-old_color="#000000" fill="#f3b632"/><path d="m256 392c-8.271 0-15-6.729-15-15 0-8.284-6.716-15-15-15s-15 6.716-15 15c0 19.555 12.541 36.228 30 42.42v17.58c0 8.284 6.716 15 15 15s15-6.716 15-15v-17.58c17.459-6.192 30-22.865 30-42.42 0-24.813-20.187-45-45-45-8.271 0-15-6.729-15-15s6.729-15 15-15 15 6.729 15 15c0 8.284 6.716 15 15 15s15-6.716 15-15c0-19.555-12.541-36.228-30-42.42v-17.58c0-8.284-6.716-15-15-15s-15 6.716-15 15v17.58c-17.459 6.192-30 22.865-30 42.42 0 24.813 20.187 45 45 45 8.271 0 15 6.729 15 15s-6.729 15-15 15z" data-original="#000000" class="active-path" data-old_color="#000000" fill="#f3b632"/><path d="m256 120c8.284 0 15-6.716 15-15v-60c0-8.284-6.716-15-15-15s-15 6.716-15 15v60c0 8.284 6.716 15 15 15z" data-original="#000000" class="active-path" data-old_color="#000000" fill="#f3b632"/><path d="m316 90c8.284 0 15-6.716 15-15v-60c0-8.284-6.716-15-15-15s-15 6.716-15 15v60c0 8.284 6.716 15 15 15z" data-original="#000000" class="active-path" data-old_color="#000000" fill="#f3b632"/><path d="m196 90c8.284 0 15-6.716 15-15v-60c0-8.284-6.716-15-15-15s-15 6.716-15 15v60c0 8.284 6.716 15 15 15z" data-original="#000000" class="active-path" data-old_color="#000000" fill="#f3b632"/></g></g> </svg>
